<?xml version="1.0" encoding="utf-8"?>
<!-- Generator: Adobe Illustrator 19.2.0, SVG Export Plug-In . SVG Version: 6.00 Build 0)  -->
<svg version="1.1" id="Layer_1" xmlns="http://www.w3.org/2000/svg" xmlns:xlink="http://www.w3.org/1999/xlink" x="0px" y="0px"
	 viewBox="0 0 194.9 47.8" style="enable-background:new 0 0 194.9 47.8;" xml:space="preserve">
<g>
	<path style="fill:#656665;" d="M107.5,16.3c0-6.8,5.1-11.4,11.6-11.4c3.9,0,6.5,1.8,8.2,4c0.4,0.5,0.2,1.2-0.4,1.5l-1.5,0.8
		c-0.4,0.2-0.9,0.1-1.2-0.3c-1.2-1.5-3-2.5-5.1-2.5c-4.4,0-7.6,3.4-7.6,8c0,4.6,3.3,8,7.6,8c2.1,0,4-1,5.1-2.5
		c0.3-0.4,0.8-0.5,1.2-0.3l1.5,0.8c0.6,0.3,0.7,1,0.3,1.5c-1.7,2.2-4.3,4-8.2,4C112.5,27.8,107.5,23.1,107.5,16.3z"/>
	<path style="fill:#656665;" d="M146.5,16.3c0-5.3,3-9.5,7.6-10.9c0.2-0.1,0.4-0.1,0.7-0.2c1-0.2,2-0.4,3-0.4
		c6.6,0,11.3,4.8,11.3,11.4s-4.7,11.4-11.3,11.4C151.2,27.8,146.5,22.9,146.5,16.3z M165.2,16.3c0-4.6-2.9-8-7.3-8
		c-4.5,0-7.3,3.4-7.3,8c0,4.5,2.9,8,7.3,8C162.3,24.3,165.2,20.9,165.2,16.3z"/>
	<path style="fill:#656665;" d="M99.1,5.3h-3.5c-0.4,0-0.8,0.3-0.9,0.6L86.7,26c-0.3,0.7,0.2,1.4,0.9,1.4h2.3c0.4,0,0.8-0.3,0.9-0.6
		l1.4-3.6l1.1-3.4l1.1-3l2.8-7.5l4,10.5h-4c-0.4,0-0.8,0.3-1,0.7l-0.7,2.1c-0.1,0.3,0.1,0.7,0.5,0.7h6.2l1.4,3.6
		c0.1,0.4,0.5,0.6,0.9,0.6h2.3c0.7,0,1.2-0.7,0.9-1.4L100,5.9C99.8,5.5,99.5,5.3,99.1,5.3z"/>
	<path style="fill:#656665;" d="M86.6,14.4h-7.3V8.7h10.4c0.4,0,0.8-0.3,0.9-0.6l0.6-1.4c0.3-0.7-0.2-1.4-0.9-1.4H76.4
		c-0.6,0-1,0.4-1,1v20.1c0,0.6,0.4,1,1,1h1.9c0.6,0,1-0.4,1-1v-8.6H86c0.4,0,0.8-0.3,0.9-0.6l0.6-1.4C87.8,15.1,87.3,14.4,86.6,14.4
		z"/>
	<path style="fill:#656665;" d="M129.6,5.3c-0.8,0-1.3,1-0.8,1.6l0.9,1.4c0.2,0.3,0.5,0.4,0.8,0.4h5.6v18.7h3.9V8.7h5.6
		c0.3,0,0.6-0.2,0.8-0.4c0.3-0.5,0.6-0.9,1-1.3c0.6-0.6,0.1-1.7-0.7-1.7L129.6,5.3z"/>
	<g>
		<path style="fill:#656665;" d="M189.1,5.8l-4.5,10.8c-0.1,0.2-0.1,0.5,0,0.8l1.4,3.3c0.2,0.4,0.8,0.4,0.9,0l4.1-9.8v15.4
			c0,0.6,0.4,1,1,1h1.9c0.6,0,1-0.4,1-1V6.2c0-0.6-0.4-1-1-1h-3.8C189.6,5.2,189.3,5.5,189.1,5.8z"/>
		<path style="fill:#656665;" d="M183.9,24.7c0.7,0,1.2-0.7,0.9-1.4l-1.5-3.5l0,0l-5.7-13.9c-0.2-0.4-0.5-0.6-0.9-0.6h-3.8
			c-0.6,0-1,0.4-1,1v20.1c0,0.6,0.4,1,1,1h1.9c0.6,0,1-0.4,1-1V10.9l5.4,13.1c0.2,0.4,0.5,0.6,0.9,0.6H183.9z"/>
	</g>
</g>
<g>
	<path style="fill:#939598;" d="M81.5,33.9h-4.9v3.2h4.8c0.3,0,0.5,0.2,0.5,0.6c0,0.3-0.2,0.5-0.5,0.5h-4.8v4c0,0.3-0.3,0.6-0.6,0.6
		c-0.3,0-0.6-0.3-0.6-0.6v-8.6c0-0.5,0.4-0.9,0.9-0.9h5.2c0.3,0,0.5,0.2,0.5,0.6C82,33.6,81.8,33.9,81.5,33.9z"/>
	<path style="fill:#939598;" d="M88.7,42.9c-3,0-5-2.2-5-5.2c0-3,2-5.2,5-5.2c3,0,5,2.2,5,5.2C93.6,40.7,91.6,42.9,88.7,42.9z
		 M88.7,33.7c-2.3,0-3.7,1.7-3.7,4.1c0,2.3,1.4,4.1,3.7,4.1c2.2,0,3.7-1.7,3.7-4.1C92.4,35.4,90.9,33.7,88.7,33.7z"/>
	<path style="fill:#939598;" d="M100.2,42.9c-2.7,0-4.1-1.6-4.1-4.1v-5.6c0-0.3,0.3-0.6,0.6-0.6c0.3,0,0.6,0.3,0.6,0.6v5.6
		c0,1.8,1,3,2.8,3c1.8,0,2.8-1.2,2.8-3v-5.6c0-0.3,0.3-0.6,0.6-0.6c0.3,0,0.6,0.3,0.6,0.6v5.6C104.2,41.4,102.9,42.9,100.2,42.9z"/>
	<path style="fill:#939598;" d="M114.6,42.9c-0.2,0-0.5-0.1-0.6-0.3l-5.7-7.8v7.5c0,0.3-0.3,0.6-0.6,0.6c-0.3,0-0.6-0.3-0.6-0.6
		v-8.8c0-0.4,0.3-0.8,0.8-0.8c0.3,0,0.5,0.1,0.7,0.3l5.6,7.6v-7.3c0-0.3,0.3-0.6,0.6-0.6c0.3,0,0.6,0.3,0.6,0.6v8.9
		C115.4,42.5,115.1,42.9,114.6,42.9z"/>
	<path style="fill:#939598;" d="M121.6,42.8h-2.5c-0.5,0-0.9-0.4-0.9-0.9v-8.2c0-0.5,0.4-0.9,0.9-0.9h2.5c3.1,0,5.1,2.2,5.1,5
		C126.7,40.6,124.7,42.8,121.6,42.8z M121.6,33.9h-2.2v7.8h2.2c2.4,0,3.8-1.7,3.8-3.9C125.5,35.6,124.1,33.9,121.6,33.9z"/>
	<path style="fill:#939598;" d="M136.2,42.9c-0.3,0-0.5-0.1-0.6-0.4l-0.8-1.9h-5l-0.8,1.9c-0.1,0.3-0.3,0.4-0.6,0.4
		c-0.4,0-0.7-0.3-0.7-0.7c0-0.1,0-0.2,0-0.2l3.5-8.6c0.2-0.4,0.6-0.7,1-0.7c0.4,0,0.8,0.3,1,0.7l3.5,8.6c0,0.1,0,0.2,0,0.2
		C136.9,42.5,136.6,42.9,136.2,42.9z M132.4,34.1l-2.1,5.4h4.2L132.4,34.1z"/>
	<path style="fill:#939598;" d="M144.4,33.9h-2.7v8.4c0,0.3-0.3,0.6-0.6,0.6c-0.3,0-0.6-0.3-0.6-0.6v-8.4h-2.7
		c-0.3,0-0.5-0.2-0.5-0.6c0-0.3,0.2-0.5,0.5-0.5h6.7c0.3,0,0.5,0.2,0.5,0.6C145,33.6,144.7,33.9,144.4,33.9z"/>
	<path style="fill:#939598;" d="M147.7,42.9c-0.3,0-0.6-0.3-0.6-0.6v-9c0-0.3,0.3-0.6,0.6-0.6c0.3,0,0.6,0.3,0.6,0.6v9
		C148.3,42.6,148,42.9,147.7,42.9z"/>
	<path style="fill:#939598;" d="M155.7,42.9c-3,0-5-2.2-5-5.2c0-3,2-5.2,5-5.2c3,0,5,2.2,5,5.2C160.6,40.7,158.6,42.9,155.7,42.9z
		 M155.7,33.7c-2.3,0-3.7,1.7-3.7,4.1c0,2.3,1.4,4.1,3.7,4.1c2.2,0,3.7-1.7,3.7-4.1C159.4,35.4,157.9,33.7,155.7,33.7z"/>
	<path style="fill:#939598;" d="M170.6,42.9c-0.2,0-0.5-0.1-0.6-0.3l-5.7-7.8v7.5c0,0.3-0.3,0.6-0.6,0.6c-0.3,0-0.6-0.3-0.6-0.6
		v-8.8c0-0.4,0.3-0.8,0.8-0.8c0.3,0,0.5,0.1,0.7,0.3l5.6,7.6v-7.3c0-0.3,0.3-0.6,0.6-0.6c0.3,0,0.6,0.3,0.6,0.6v8.9
		C171.4,42.5,171.1,42.9,170.6,42.9z"/>
</g>
<g>
	<g>
		<path style="fill:#407BA4;" d="M41.6,36.6c-0.4-0.3-1-0.2-1.3,0.2c-1.8,2.6-4.1,4.7-6.8,6.3c-3.2,1.8-6.7,2.8-10.4,2.8
			c0,0-0.1,0-0.1,0c-6.7,0-13-3.2-16.9-8.5c0,0,0,0-0.1,0c0-0.1-0.1-0.1-0.1-0.1c0,0-0.1-0.1-0.1-0.1c-0.1,0-0.1,0-0.2-0.1
			c-0.1,0-0.1,0-0.2,0c0,0,0,0-0.1,0c0,0-0.1,0-0.1,0c-0.1,0-0.1,0-0.2,0c-0.1,0-0.1,0-0.2,0.1c0,0-0.1,0-0.1,0c0,0,0,0,0,0.1
			c-0.1,0-0.1,0.1-0.1,0.1c0,0-0.1,0.1-0.1,0.1c0,0.1,0,0.1-0.1,0.2c0,0.1,0,0.1,0,0.2c0,0,0,0,0,0.1v3.8c0,0.5,0.4,1,1,1s1-0.4,1-1
			v-1.1c4.3,4.6,10.4,7.2,16.8,7.2c0,0,0.1,0,0.1,0c4,0,7.9-1.1,11.3-3.1c3-1.7,5.5-4,7.4-6.9C42.2,37.5,42.1,36.9,41.6,36.6z"/>
		<path style="fill:#D37D41;" d="M22.1,3C22.1,3,22.1,2.9,22.1,3c0-0.1,0-0.1,0-0.2c0-0.1,0-0.1-0.1-0.2c0-0.1,0-0.1-0.1-0.2
			c0,0-0.1-0.1-0.1-0.1c0-0.1-0.1-0.1-0.2-0.1c0,0,0,0-0.1-0.1l-3.5-2c-0.5-0.3-1-0.1-1.3,0.4c-0.3,0.5-0.1,1,0.4,1.3l1.1,0.6
			c-2.4,0.5-4.6,1.4-6.8,2.6C8,7,5.2,9.9,3.2,13.3C-0.8,20-1,28.1,2.4,35.1c0.2,0.3,0.5,0.5,0.9,0.5c0.1,0,0.3,0,0.4-0.1
			c0.5-0.2,0.7-0.8,0.4-1.3c-3.1-6.4-2.9-13.8,0.7-20c1.8-3.1,4.5-5.8,7.6-7.6c2.7-1.6,5.7-2.5,8.8-2.7c0,0,0,0,0,0
			c0.1,0,0.2,0,0.3-0.1c0,0,0,0,0,0c0.1-0.1,0.2-0.1,0.3-0.2c0,0,0,0,0.1-0.1c0,0,0.1-0.1,0.1-0.1c0,0,0-0.1,0-0.1
			c0-0.1,0-0.1,0.1-0.2C22.1,3.1,22.1,3.1,22.1,3z"/>
		<path style="fill:#E9B520;" d="M47.1,31.8c-0.3-0.5-0.9-0.6-1.3-0.4l-0.9,0.5c2-6.1,1.3-12.9-2-18.5C39.1,7,32.4,2.7,25,2
			c-0.5,0-1,0.3-1,0.9c0,0.5,0.3,1,0.9,1c6.8,0.6,12.9,4.5,16.4,10.4c3.4,5.9,3.7,13.2,0.9,19.4c0,0,0,0.1,0,0.1c0,0.1,0,0.1,0,0.2
			c0,0.1,0,0.1,0,0.2c0,0.1,0,0.1,0,0.2c0,0.1,0,0.1,0.1,0.2c0,0,0,0.1,0,0.1c0,0,0.1,0.1,0.1,0.1c0,0,0,0,0,0.1
			c0.1,0.1,0.2,0.1,0.3,0.2c0,0,0,0,0,0c0,0,0.1,0,0.1,0c0,0,0,0,0.1,0c0.1,0,0.2,0,0.2,0c0,0,0,0,0,0c0.1,0,0.2,0,0.2,0
			c0,0,0.1,0,0.1,0c0,0,0.1,0,0.1-0.1l3.3-1.9C47.2,32.8,47.3,32.2,47.1,31.8z"/>
	</g>
	<g>
		<g style="enable-background:new    ;">
			<g>
				<g>
					<path style="fill:#656665;" d="M19,39.5c-0.4,0.6-0.8,1.1-1,1.6C18.2,40.6,18.6,40.1,19,39.5"/>
				</g>
			</g>
		</g>
		<path style="fill:#656665;" d="M21.5,6c0.5,0,1.1,0,1.6-0.1c1.7,0,2.6,0.7,2.2,2c-0.4,1.6-2.6,3.7-5.5,5.7c-0.5,0.3-1.1-0.5-1-0.8
			c0,0,0.1-0.1,0.1-0.1c2.5-1.7,4.4-3.6,4.8-4.9C24.1,6.4,23,5.8,21.1,6L21.5,6"/>
		<path style="fill:#656665;" d="M31.3,7.8c1,0.5,1.4,1.3,1.1,2.5c-1,3.6-8.1,9.3-15.9,12.6c-1.5,0.6-2.9,1.1-4.2,1.5
			c-0.7,0.1-0.8-0.9-0.5-1.3c0.1-0.1,0.2-0.2,0.3-0.2c1.2-0.4,2.5-0.8,3.9-1.4C23.3,18.3,30,13,31,9.6c0.3-1.2-0.1-2.1-1.2-2.5
			C30.2,7.3,30.8,7.6,31.3,7.8"/>
		<path style="fill:#656665;" d="M39.8,15.9l0.2,0.4c0.2,0.6,0.2,0.6,0.2,1c0,0,0,0.1,0,0.1c-0.2-0.1-0.7-1.1-0.8-1.5
			c0-0.4-0.1-0.8-0.3-1.2L39.8,15.9"/>
		<path style="fill:#656665;" d="M41.5,20.2c0.1,0.4,0.1,0.9-0.1,1.5c-1,3.6-7.1,8.8-14.4,12.7c-0.8,0.3-1.3-0.3-1.1-0.8
			c0.1-0.3,0.3-0.4,0.4-0.5C33.8,29.2,40,23.9,41,20.3c0.2-0.7,0.2-1.2,0-1.7C41.2,19.1,41.4,19.7,41.5,20.2"/>
		<path style="fill:#656665;" d="M42.1,23.7l0,0.6c0,0.3,0,0.6-0.1,0.9c-0.6,2.2-3.2,5.1-6.9,7.8c-0.6,0.4-0.9-0.2-0.8-0.6
			c0.1-0.3,0.3-0.5,0.4-0.6c3.8-2.8,6.6-5.8,7.2-8.1c0.1-0.4,0.1-0.8,0.1-1.2L42.1,23.7"/>
		<path style="fill:#656665;" d="M15.1,38.3c-0.1-0.1-0.5-0.7-1.1-0.6c-3.1,0.5-5.3,0.2-6.2-0.9c0,0,0,0,0-0.1c0,0,0,0,0,0
			c0.2,0.2,0.4,0.4,0.6,0.7c0.2,0.2,0.4,0.5,0.6,0.7c0.9,1,3.1,1.3,6,0.8C15.2,38.8,15.1,38.5,15.1,38.3z"/>
		<path style="fill:#656665;" d="M24,38.7c0,0.1,0.1,0.4-0.4,0.7c-5.6,2.2-10,2.7-11.8,1.4c-0.4-0.3-1-0.7-1.4-1.1
			c1.7,1.4,6.4,1,12.3-1.4C23.7,38.1,24,38.7,24,38.7"/>
		<path style="fill:#656665;" d="M42.1,26.9c-0.1,0.4-0.1,1.1-0.2,1.5c0,0.1,0,0.2-0.1,0.3c-0.9,3.5-7.9,9-15.4,12.2
			c-4.9,2.1-8.9,2.7-10.9,1.9c-0.5-0.2-1.1-0.5-1.6-0.8c6.7,2.8,27.2-8.5,28.2-15.4L42.1,26.9"/>
		<path style="fill:#656665;" d="M40.7,32.4c-2.9,5.9-16,12.4-21.2,11.6c-0.5-0.1-1.3-0.3-1.8-0.4c1.9,0.5,5.4-0.1,9.6-1.9
			c6.8-2.9,13.1-7.8,14-11C41.1,31.2,40.9,31.9,40.7,32.4"/>
		<path style="fill:#656665;" d="M36.5,38.3c0,0.1-0.2,0.3-0.5,0.5c-1.8,1.5-4.2,2.9-6.8,4c-2.1,0.9-4,1.4-5.4,1.5c-0.6,0-1.4,0-2,0
			c1.6,0.1,4-0.5,6.8-1.6c2.9-1.2,5.6-2.9,7.7-4.5c0,0,0.1-0.1,0.2-0.1c0,0,0,0.1,0,0.1C36.6,38.1,36.5,38.2,36.5,38.3"/>
		<path style="fill:#656665;" d="M5.2,23.2c-0.3-0.1-0.5-0.3-0.7-0.6c-0.2-0.3-0.3-0.7-0.3-1.2c0-0.2,0.1-0.4,0.1-0.5
			c0,0.1,0,0.1,0,0.2l-0.1,0.7l-0.2,1l0,0c0,0.1,0,0.3,0,0.4c0,0.1,0,0.1,0,0.2c0,0,0,0.1,0,0.1c0,0.1,0.1,0.3,0.1,0.4
			c0,0,0,0,0,0.1c0,0,0,0.1,0,0.1c0,0.1,0.1,0.1,0.1,0.2c0,0,0,0,0,0c0.2,0.3,0.4,0.5,0.7,0.6c0.2,0,0.3-0.3,0.3-0.5
			C5.3,24.3,5.4,23.4,5.2,23.2z"/>
		<path style="fill:#656665;" d="M34.8,10L34,9.4L33.4,9c0.3,0.3,1,0.7,0.9,1.8C34,17.1,9.6,32.1,4.1,26.3c-0.2-0.3-0.4-0.7-0.4-1.2
			c0,0.5,0,1.1,0.1,1.6c0,0,0,0,0,0c0,0,0,0.1,0,0.1c0,0,0,0,0,0c0,0,0,0.1,0,0.1c0,0,0,0,0,0c0,0.1,0,0.1,0,0.1c0,0,0-0.1,0-0.1
			c0,0.1,0,0.2,0.1,0.3c0,0,0,0.1,0,0.1c0,0,0,0,0,0.1c0,0,0,0,0,0c0,0.1,0.1,0.1,0.1,0.2c0,0-0.1-0.1-0.1-0.1
			c0.1,0.1,0.1,0.3,0.2,0.4c0,0,0,0,0,0c1.4,1.9,6.7,1.5,13.5-1.4c8.7-3.7,16.6-9.9,17.7-14C35.7,11.4,35.5,10.5,34.8,10z"/>
		<path style="fill:#656665;" d="M37.7,12.8c-0.3-0.4-0.8-0.9-1.2-1.3c0.6,0.6,0.7,1.4,0.5,2.4c-1.1,4.2-9.4,10.7-18.4,14.5
			c-7.1,3-12.6,3.5-14.1,1.5c0,0,0,0,0,0c-0.2-0.2-0.3-0.5-0.3-0.7c0.1,0.5,0.3,1.2,0.5,1.7c0.1,0.3,0.1,0.4,0.3,0.5l0,0
			c0,0,0,0,0,0l0,0l0,0c0,0,0,0,0,0l0,0c0,0,0,0,0,0c1.5,2,7.1,1.5,14.3-1.5c9.2-3.9,17.6-10.5,18.8-14.8
			C38.3,14.2,38.2,13.4,37.7,12.8z"/>
		<path style="fill:#656665;" d="M18,6.6c-0.3,0.1-0.4,0.1-0.6,0.2c-0.3,0.1-0.3,0.1-0.6,0.2c-0.3,0.1-0.4,0.2-0.6,0.2
			c-0.2,0.1-0.3,0.1-0.6,0.3c-0.2,0.1-0.3,0.1-0.5,0.2c-0.2,0.1-0.3,0.1-0.5,0.2C14.3,8,14.3,8,14.1,8.1c-0.2,0.1-0.2,0.1-0.4,0.2
			c-0.2,0.1-0.2,0.1-0.4,0.2c-0.2,0.1-0.2,0.1-0.4,0.3c-0.2,0.1-0.3,0.2-0.4,0.3c-0.2,0.1-0.2,0.2-0.4,0.3c-0.2,0.1-0.3,0.2-0.4,0.3
			c-0.2,0.1-0.3,0.2-0.4,0.3c-0.2,0.2-0.3,0.2-0.5,0.4c-0.2,0.2-0.3,0.2-0.5,0.4C9.7,11.2,9.3,11.6,9,12c-0.3,0.3-0.5,0.6-0.6,0.9
			c0,0.1-0.1,0.2-0.1,0.3c0,0.1,0,0.1,0,0.2c0,0.3,0,0.5,0.1,0.7c0.6,0.8,2.8,0.6,5.7-0.6c0.9-0.4,1.8-0.8,2.6-1.3
			c0.2-0.2,0.1-0.4,0-0.5c-0.1-0.1-0.4-0.4-0.6-0.3c-0.7,0.4-1.4,0.8-2.1,1.1c-2.3,1-4.1,1.1-4.5,0.5c-0.1-0.2-0.2-0.4-0.1-0.7
			c0.1-0.3,0.3-0.6,0.6-1c0.4-0.4,0.9-0.9,1.5-1.4c1.3-0.9,2.8-1.8,4.3-2.4C16,7.2,16.3,7.1,16.5,7c2.3-0.7,3.8-0.5,3.5,0.6
			c-0.1,0.4-0.3,0.8-0.7,1.2c0.2,0.2,1.1,0.4,1.4,0.2c0.5-0.5,0.8-1.1,0.9-1.5C21.9,6.3,20.4,5.9,18,6.6z"/>
		<path style="fill:#656665;" d="M12.6,15.7c-2.8,0.9-4.8,0.9-5.4,0.1C7,15.6,6.9,15.2,7,14.7c0.1-0.4,0.2-0.6,0.4-0.9
			c0.1-0.2,0.3-0.4,0.5-0.7l0,0l-0.3,0.3c-0.1,0.2-0.3,0.4-0.5,0.7c-0.2,0.2-0.3,0.4-0.4,0.6c-0.1,0.2-0.3,0.5-0.4,0.7
			c-0.1,0.2-0.1,0.3-0.2,0.5c0,0.1,0,0.2-0.1,0.3c0,0.2,0,0.4,0,0.5c0,0,0,0,0,0c0,0.1,0.1,0.3,0.2,0.4c0,0,0,0,0,0
			c0.6,0.7,2,0.8,3,0.6c3.5-0.4,3.6-1,3.6-1.4C13,16.4,13,15.7,12.6,15.7z"/>
		<path style="fill:#656665;" d="M27.8,6.5c-0.2-0.1-0.4-0.1-0.7-0.2c-0.5-0.1-0.5-0.1-0.6-0.1c0.9,0.3,1.3,1,1,2
			c-0.8,2.8-6.3,7.2-12.4,9.8c-4.8,2-8.5,2.3-9.5,1c-0.3-0.4-0.3-0.8-0.2-1.4c0.1-0.2,0.1-0.4,0.2-0.6c-0.2,0.5-0.5,1.2-0.7,1.7
			c0,0.1-0.1,0.2-0.1,0.3c0,0.1-0.1,0.3-0.1,0.4c-0.1,0.5,0,0.9,0.3,1.2c1.1,1.5,5.1,1.1,10.4-1.1c6.7-2.8,12.8-7.6,13.6-10.7
			C29.3,7.7,28.8,6.9,27.8,6.5z"/>
		<path style="fill:#656665;" d="M6.5,34.9c0,0-0.1-0.1-0.3-0.6c0,0,0,0,0,0c0,0,0,0,0-0.1C6,34,5.9,33.7,5.7,33.4
			c1.5,2.1,7.2,1.6,14.6-1.5c5.5-2.3,10.8-5.7,14.4-8.9c0.6-0.3,0.9,0.2,1,0.4c0.2,0.5,0,0.8-0.2,1c-3.6,3.2-8.9,6.5-14.4,8.9
			c-6.9,2.9-12.3,3.5-14.2,1.9C6.8,35.3,6.6,35,6.5,34.9"/>
		<path style="fill:#656665;" d="M6.5,34.9"/>
	</g>
</g>
</svg>
