<?xml version="1.0" encoding="UTF-8" standalone="no"?>
<svg
   xmlns:dc="http://purl.org/dc/elements/1.1/"
   xmlns:cc="http://creativecommons.org/ns#"
   xmlns:rdf="http://www.w3.org/1999/02/22-rdf-syntax-ns#"
   xmlns:svg="http://www.w3.org/2000/svg"
   xmlns="http://www.w3.org/2000/svg"
   xmlns:sodipodi="http://sodipodi.sourceforge.net/DTD/sodipodi-0.dtd"
   xmlns:inkscape="http://www.inkscape.org/namespaces/inkscape"
   viewBox="0 -256 1792 1792"
   id="svg2989"
   version="1.1"
   inkscape:version="0.48.3.1 r9886"
   width="100%"
   height="100%"
   sodipodi:docname="fullscreen_font_awesome.svg">
  <metadata
     id="metadata2999">
    <rdf:RDF>
      <cc:Work
         rdf:about="">
        <dc:format>image/svg+xml</dc:format>
        <dc:type
           rdf:resource="http://purl.org/dc/dcmitype/StillImage" />
      </cc:Work>
    </rdf:RDF>
  </metadata>
  <defs
     id="defs2997" />
  <sodipodi:namedview
     pagecolor="#ffffff"
     bordercolor="#666666"
     borderopacity="1"
     objecttolerance="10"
     gridtolerance="10"
     guidetolerance="10"
     inkscape:pageopacity="0"
     inkscape:pageshadow="2"
     inkscape:window-width="640"
     inkscape:window-height="480"
     id="namedview2995"
     showgrid="false"
     inkscape:zoom="0.13169643"
     inkscape:cx="896"
     inkscape:cy="896"
     inkscape:window-x="0"
     inkscape:window-y="25"
     inkscape:window-maximized="0"
     inkscape:current-layer="svg2989" />
  <g
     transform="matrix(1,0,0,-1,121.49153,1270.2373)"
     id="g2991">
    <path
       d="M 1283,995 928,640 1283,285 1427,429 q 29,31 70,14 39,-17 39,-59 V -64 q 0,-26 -19,-45 -19,-19 -45,-19 h -448 q -42,0 -59,40 -17,39 14,69 L 1123,125 768,480 413,125 557,-19 q 31,-30 14,-69 -17,-40 -59,-40 H 64 q -26,0 -45,19 -19,19 -19,45 v 448 q 0,42 40,59 39,17 69,-14 L 253,285 608,640 253,995 109,851 Q 90,832 64,832 52,832 40,837 0,854 0,896 v 448 q 0,26 19,45 19,19 45,19 h 448 q 42,0 59,-40 17,-39 -14,-69 l -144,-144 355,-355 355,355 -144,144 q -31,30 -14,69 17,40 59,40 h 448 q 26,0 45,-19 19,-19 19,-45 V 896 q 0,-42 -39,-59 -13,-5 -25,-5 -26,0 -45,19 z"
       id="path2993"
       inkscape:connector-curvature="0"
       style="fill:currentColor" />
  </g>
</svg>
